<?xml version="1.0" standalone="no"?>
<!DOCTYPE svg PUBLIC "-//W3C//DTD SVG 20010904//EN"
 "http://www.w3.org/TR/2001/REC-SVG-20010904/DTD/svg10.dtd">
<svg version="1.0" xmlns="http://www.w3.org/2000/svg"
 width="512.000000pt" height="512.000000pt" viewBox="0 0 512.000000 512.000000"
 preserveAspectRatio="xMidYMid meet">
<metadata>
Created by potrace 1.11, written by Peter Selinger 2001-2013
</metadata>
<g transform="translate(0.000000,512.000000) scale(0.100000,-0.100000)"
fill="#000000" stroke="none">
<path d="M1520 4729 c-413 -5 -450 -7 -521 -26 -85 -24 -220 -88 -266 -127
-17 -14 -35 -26 -40 -26 -5 0 -37 -29 -71 -65 -84 -90 -157 -212 -188 -315
-14 -47 -28 -92 -31 -100 -3 -8 -7 -33 -8 -55 -3 -72 -6 -1977 -3 -1980 2 -2
32 14 66 35 92 55 205 89 317 97 141 9 252 -13 431 -88 l32 -13 211 177 c115
98 216 179 223 181 13 5 108 -114 108 -133 0 -6 -38 -42 -85 -82 -47 -39 -85
-73 -85 -76 0 -13 52 16 100 56 96 81 81 79 153 26 91 -68 117 -75 315 -82
l172 -6 0 -244 0 -243 210 0 210 0 0 308 0 309 -127 6 c-71 4 -200 7 -288 7
-171 0 -222 9 -320 54 -194 88 -363 291 -410 488 -21 88 -22 1166 -1 1243 44
169 178 323 336 387 54 23 63 23 565 26 358 2 528 0 570 -8 95 -19 171 -63
258 -151 l77 -78 0 53 c0 71 33 194 70 265 17 31 53 85 81 119 l50 62 -233 0
c-128 0 -503 1 -833 3 -330 1 -800 -1 -1045 -4z"/>
<path d="M4270 4576 c-63 -13 -126 -26 -139 -31 -36 -11 -130 -103 -153 -149
-28 -54 -50 -188 -42 -250 21 -157 133 -272 301 -306 47 -10 75 -7 245 25 106
20 203 39 215 42 31 7 34 61 7 179 -26 118 -85 253 -131 303 -18 20 -33 42
-33 49 0 6 -4 12 -8 12 -5 0 -18 17 -30 39 -22 38 -95 112 -110 110 -4 0 -59
-11 -122 -23z"/>
<path d="M3520 3810 c0 -91 0 -253 0 -360 0 -107 -2 -210 -6 -227 l-6 -33
-369 0 -369 0 0 245 0 245 -210 0 -210 0 2 -312 3 -313 31 1 c25 1 66 30 190
135 l159 132 3 -113 c2 -69 -1 -117 -8 -124 -25 -25 -6 -31 103 -34 71 -2 139
-10 185 -22 44 -12 104 -20 154 -20 l82 0 -27 -28 -28 -29 79 -79 c119 -120
178 -221 217 -369 13 -51 15 -172 15 -857 l0 -798 -950 0 -950 0 -1 548 c0
301 -4 567 -7 591 l-7 43 -28 -26 c-15 -14 -28 -34 -28 -46 -1 -11 -2 -26 -3
-32 -1 -7 2 -18 7 -25 5 -7 10 -70 11 -140 1 -70 8 -157 15 -193 19 -95 6
-346 -22 -420 -46 -124 -167 -265 -309 -357 -284 -186 -596 -172 -872 37 -65
48 -86 59 -86 42 0 -4 23 -30 50 -57 47 -46 50 -52 50 -101 0 -77 18 -156 40
-179 17 -17 39 -21 128 -26 l107 -6 -142 -1 -143 -2 0 -65 0 -65 2190 0 2190
0 0 65 0 65 -1827 2 -1828 3 1798 5 1799 5 19 24 c18 22 19 43 19 295 2 1006
-1 1659 -6 1667 -3 5 0 9 7 9 9 0 10 21 5 80 -10 120 -7 832 4 935 5 49 7 91
5 93 -2 3 -25 -14 -51 -37 -90 -79 -199 -134 -324 -162 -79 -18 -246 -12 -335
12 -134 36 -117 41 -249 -70 l-119 -100 -19 24 -19 25 -40 -27 c-22 -14 -41
-24 -43 -22 -2 2 -6 82 -8 177 -4 139 -2 175 8 179 10 4 11 10 4 23 -14 27
-13 193 1 184 13 -8 4 61 -17 116 -11 31 -13 18 -14 -130z"/>
<path d="M1553 2087 c-42 -46 -71 -113 -60 -141 8 -21 25 -20 24 2 -2 40 17
85 50 117 19 19 33 41 31 51 -2 13 -13 6 -45 -29z"/>
<path d="M575 1779 c-82 -15 -214 -40 -292 -55 -134 -24 -143 -27 -143 -49 0
-40 18 -44 110 -29 47 7 92 14 101 14 27 0 39 -131 39 -442 l0 -288 28 0 c15
0 136 22 270 49 239 47 243 48 288 87 103 87 139 181 132 339 -3 70 -10 103
-30 147 -61 131 -123 192 -231 227 -96 30 -112 30 -272 0z"/>
</g>
</svg>
